# ProBuilder 5.2.2
# https://unity3d.com/unity/features/worldbuilding/probuilder
# 8/23/2024 6:05:29 PM

mtllib ./room-cylinder.mtl
o RoomCylinder

g FloorCylinder
v -11.08655 -3.092355 -4.5922
v -11.08655 -1.092355 -4.5922
v -11.08655 -3.092355 4.592202
v -11.08655 -1.092355 4.592202
v -4.5922 -3.092355 11.08655
v -4.5922 -1.092355 11.08655
v 4.592202 -3.092355 11.08655
v 4.592202 -1.092355 11.08655
v 11.08655 -3.092355 4.5922
v 11.08655 -1.092355 4.5922
v 11.08655 -3.092355 -4.592201
v 11.08655 -1.092355 -4.592201
v 4.5922 -3.092355 -11.08655
v 4.5922 -1.092355 -11.08655
v -4.592199 -3.092355 -11.08655
v -4.592199 -1.092355 -11.08655
v -10.69458 -1.007645 -4.429841
v -10.69458 -1.007645 4.429843
v -4.42984 -1.007645 10.69458
v 4.429843 -1.007645 10.69458
v 10.69458 -1.007645 4.42984
v 10.69458 -1.007645 -4.429842
v 4.429841 -1.007645 -10.69458
v -4.42984 -1.007645 -10.69458
v 0 -1.007645 0

vt 5.314057 -1.57292
vt 5.314057 2.108657
vt 2.710788 4.711926
vt -0.9707888 4.711926
vt -3.574058 2.108657
vt -3.574058 -1.57292
vt -0.9707892 -4.176188
vt 2.710787 -4.176189
vt 5.156936 -1.507838
vt 5.156936 2.043575
vt 2.645707 4.554804
vt -0.9057064 4.554804
vt -3.416935 2.043575
vt -3.416935 -1.507838
vt -0.9057069 -4.019067
vt 2.645706 -4.019067
vt 0.8700002 0.2678686

vn -12 0 1.88962E-08
vn 6.797063E-07 0 12
vn 8.485282 0 8.48528
vn 12 0 -1.283828E-06
vn 8.48528 0 -8.485281
vn -3.493013E-07 0 -12
vn -8.48528 0 -8.485282
vn -7.847685 2.269552 1.365302E-07
vn -5.549159 2.269549 5.549161
vn 1.932188E-07 2.269552 7.847686
vn 5.549165 2.269547 5.549164
vn 7.847693 2.26955 -7.034162E-07
vn 5.549159 2.269549 -5.549159
vn -3.730111E-07 2.26955 -7.847692
vn -5.549157 2.26955 -5.549158
vn 0 3 0
vn -8.485279 0 8.485283

usemtl ProBuilderDefault
f 18/10/16 25/17/16 17/9/16
f 19/11/16 25/17/16 18/10/16
f 20/12/16 25/17/16 19/11/16
f 21/13/16 25/17/16 20/12/16
f 22/14/16 25/17/16 21/13/16
f 23/15/16 25/17/16 22/14/16
f 24/16/16 25/17/16 23/15/16
f 17/9/16 25/17/16 24/16/16
f 4/2/1 2/1/1 1/1/1
f 1/1/1 3/2/1 4/2/1
f 8/4/2 6/3/2 5/3/2
f 5/3/2 7/4/2 8/4/2
f 10/5/3 8/4/3 7/4/3
f 7/4/3 9/5/3 10/5/3
f 12/6/4 10/5/4 9/5/4
f 9/5/4 11/6/4 12/6/4
f 14/7/5 12/6/5 11/6/5
f 11/6/5 13/7/5 14/7/5
f 16/8/6 14/7/6 13/7/6
f 13/7/6 15/8/6 16/8/6
f 2/1/7 16/8/7 15/8/7
f 15/8/7 1/1/7 2/1/7
f 18/10/8 17/9/8 2/1/8
f 2/1/8 4/2/8 18/10/8
f 19/11/9 18/10/9 4/2/9
f 4/2/9 6/3/9 19/11/9
f 20/12/10 19/11/10 6/3/10
f 6/3/10 8/4/10 20/12/10
f 21/13/11 20/12/11 8/4/11
f 8/4/11 10/5/11 21/13/11
f 22/14/12 21/13/12 10/5/12
f 10/5/12 12/6/12 22/14/12
f 23/15/13 22/14/13 12/6/13
f 12/6/13 14/7/13 23/15/13
f 24/16/14 23/15/14 14/7/14
f 14/7/14 16/8/14 24/16/14
f 17/9/15 24/16/15 16/8/15
f 16/8/15 2/1/15 17/9/15
f 4/2/17 3/2/17 5/3/17
f 5/3/17 6/3/17 4/2/17

g DomeCylinder
v -11.08655 -3.092355 -4.5922
v -11.08655 7.428626 -4.5922
v -11.08655 -3.092355 4.592202
v -11.08655 7.428626 4.592202
v 4.592202 -3.092355 11.08655
v 4.592202 7.428626 11.08655
v 11.08655 -3.092355 4.5922
v 11.08655 7.428626 4.5922
v 11.08655 -3.092355 -4.592201
v 11.08655 7.428626 -4.592201
v 4.5922 -3.092355 -11.08655
v 4.5922 7.428626 -11.08655
v -4.592199 -3.092355 -11.08655
v -4.592199 7.428626 -11.08655
v -10.69458 7.513336 -4.429841
v -10.69458 7.513336 4.429843
v -4.5922 7.428626 11.08655
v -4.42984 7.513336 10.69458
v 4.429843 7.513336 10.69458
v 10.69458 7.513336 4.42984
v 10.69458 7.513336 -4.429842
v 4.42984 7.513336 -10.69458
v -4.42984 7.513336 -10.69458
v 0 10.80257 0
v -4.5922 -3.092355 11.08655

vt 1.775597 -0.4285105
vt 1.775597 3.896647
vt -1.775598 -0.4285105
vt -1.775598 3.896647
vt 5.523027 -0.9546155
vt 5.732969 -0.9546155
vt 6.584911 -0.05388039
vt 6.757308 -0.08572629
vt 1.48941 -1.705789
vt 1.640686 -1.744482
vt 4.604269 -1.252467
vt 4.645418 -1.307188
vt -4.604274 -1.252468
vt -4.645422 -1.307189
vt -1.489414 -1.70579
vt -1.64069 -1.744484
vt -6.584934 -0.05388153
vt -6.757331 -0.08572751
vt -5.523052 -0.9546168
vt -5.732992 -0.9546169
vt -5.523054 0.9546171
vt -5.732994 0.9546171
vt -6.584936 0.05388206
vt -6.757335 0.08572793
vt -1.489414 1.705789
vt -1.640689 1.744482
vt -4.604273 1.252466
vt -4.645421 1.307188
vt 4.604272 1.252466
vt 4.645421 1.307187
vt 1.489414 1.705788
vt 1.64069 1.744482
vt 6.584903 0.05388051
vt 6.757302 0.0857265
vt 5.523019 0.9546158
vt 5.732961 0.9546158
vt 1.71282 2.357467
vt 0 4.100029
vt -1.712821 2.357467

vn 12 0 2.548203E-07
vn -8.485282 0 -8.485281
vn -12 -1.137254E-07 1.283828E-06
vn -12 -9.017209E-08 9.534228E-07
vn -8.485281 -6.661879E-08 8.485281
vn 3.493013E-07 0 12
vn 8.48528 0 8.485282
vn 7.847704 -2.269548 -2.32125E-07
vn 5.54917 -2.269546 -5.549172
vn 9.56665E-07 -2.269546 -7.847714
vn -5.549177 -2.269544 -5.549175
vn -7.84773 -2.269542 1.204186E-07
vn -5.549181 -2.269543 5.54918
vn 3.082667E-07 -2.269545 7.847714
vn 5.54917 -2.269546 5.549171
vn 9.311779 -1.892267 4.206302E-07
vn 6.58442 -1.892267 -6.584425
vn 1.024752E-06 -1.892267 -9.31178
vn -6.584423 -1.892267 -6.584421
vn -9.311779 -1.892267 1.834914E-07
vn -6.584422 -1.892267 6.584423
vn 9.009901E-07 -1.892267 9.31178
vn 6.584422 -1.892267 6.584423
vn 8.485279 -3.735051E-08 -8.485284

usemtl ProBuilderDefault
f 40/54/33 49/55/33 41/56/33
f 41/54/34 49/55/34 43/56/34
f 43/54/35 49/55/35 44/56/35
f 44/54/36 49/55/36 45/56/36
f 45/54/37 49/55/37 46/56/37
f 46/54/38 49/55/38 47/56/38
f 47/54/39 49/55/39 48/56/39
f 48/54/40 49/55/40 40/56/40
f 27/19/18 29/21/18 28/20/18
f 28/20/18 26/18/18 27/19/18
f 31/19/19 33/21/19 32/20/19
f 32/20/19 30/18/19 31/19/19
f 33/19/21 35/21/20 34/20/21
f 34/20/21 32/18/20 33/19/21
f 35/19/22 37/21/22 36/20/22
f 36/20/22 34/18/22 35/19/22
f 37/19/23 39/21/23 38/20/23
f 38/20/23 36/18/23 37/19/23
f 39/19/24 27/21/24 26/20/24
f 26/20/24 38/18/24 39/19/24
f 40/23/25 41/25/25 29/24/25
f 29/24/25 27/22/25 40/23/25
f 41/27/26 43/29/26 42/28/26
f 42/28/26 29/26/26 41/27/26
f 43/31/27 44/33/27 31/32/27
f 31/32/27 42/30/27 43/31/27
f 44/35/28 45/37/28 33/36/28
f 33/36/28 31/34/28 44/35/28
f 45/39/29 46/41/29 35/40/29
f 35/40/29 33/38/29 45/39/29
f 46/43/30 47/45/30 37/44/30
f 37/44/30 35/42/30 46/43/30
f 47/47/31 48/49/31 39/48/31
f 39/48/31 37/46/31 47/47/31
f 48/51/32 40/53/32 27/52/32
f 27/52/32 39/50/32 48/51/32
f 29/19/41 42/21/41 50/20/41
f 50/20/41 28/18/41 29/19/41

